<svg width="25" height="25" viewBox="0 0 25 25" fill="none" xmlns="http://www.w3.org/2000/svg">
  <path d="M3.32875 16.4623L6.69208 13.8903C6.49977 13.3062 6.39578 12.6813 6.39578 12.0313C6.39578 11.3814 6.49977 10.7565 6.69208 10.1724L3.32875 7.6004C2.67278 8.93406 2.30487 10.4376 2.30487 12.0313C2.30487 13.625 2.67278 15.1286 3.32875 16.4623Z" fill="#FBBC05"/>
  <path d="M6.69206 10.1723C7.46806 7.81538 9.68211 6.12222 12.3049 6.12222C13.7139 6.12222 14.9867 6.62222 15.9867 7.4404L18.8958 4.53131C17.123 2.98586 14.8503 2.03131 12.3049 2.03131C8.35309 2.03131 4.95531 4.29341 3.32874 7.60038L6.69206 10.1723Z" fill="#EA4335"/>
  <path d="M12.3049 22.0313C8.352 22.0313 4.95343 19.768 3.32739 16.4595L6.68935 13.882C7.46288 16.2433 9.67904 17.9404 12.3049 17.9404C13.5898 17.9404 14.7282 17.6378 15.6298 17.0688L18.8228 19.5408C17.0749 21.166 14.744 22.0313 12.3049 22.0313Z" fill="#34A853"/>
  <path d="M12.3049 10.2131H21.6231C21.7594 10.804 21.8503 11.4404 21.8503 12.0313C21.8503 15.2906 20.6579 17.8345 18.8228 19.5408L15.6298 17.0688C16.6738 16.41 17.4002 15.3939 17.6685 14.0768H12.3049V10.2131Z" fill="#4285F4"/>
</svg>
